<?xml version="1.0" encoding="UTF-8" standalone="no"?>
<!-- Created with Inkscape (http://www.inkscape.org/) -->

<svg
   width="63.999996"
   height="63.999996"
   viewBox="0 0 16.933332 16.933332"
   version="1.1"
   id="svg1"
   xml:space="preserve"
   xmlns="http://www.w3.org/2000/svg"
   xmlns:svg="http://www.w3.org/2000/svg"><defs
     id="defs1" /><g
     id="layer1"><rect
       style="fill:#ffccaa;stroke:#241f1c;stroke-width:0.558377"
       id="rect8"
       width="15.522528"
       height="14.894671"
       x="0.66188121"
       y="0.9792673"
       ry="2.7115991" /><g
       id="g8"
       transform="matrix(0.22288719,0,0,0.22350283,1.4101919,1.4681166)"><rect
         style="fill:#216778;stroke:#000000;stroke-width:0.529167"
         id="rect3"
         width="8.5997019"
         height="3.2066848"
         x="44.013947"
         y="11.047077"
         rx="0.7288115"
         ry="0.7288115" /><rect
         style="fill:#ff7f2a;stroke:#0b2228;stroke-width:0.529167"
         id="rect4"
         width="21.657661"
         height="4.6505308"
         x="12.795817"
         y="52.341782"
         rx="1.1871927"
         ry="1.1871927" /><rect
         style="fill:#536c67;stroke:#0b2228;stroke-width:0.419686"
         id="rect7"
         width="24.155344"
         height="6.2109447"
         x="24.685513"
         y="9.2901402"
         rx="0"
         ry="2.0275846"
         transform="matrix(0.6824001,0.73097887,-0.67546151,0.73739526,0,0)" /><path
         style="fill:#53676c;stroke:#00222b;stroke-width:0.529167"
         d="m 41.592228,27.120235 c -0.61747,-0.03719 -1.454058,-0.386295 -1.84962,-1.638623 -0.395562,-1.252327 -0.350096,-3.407791 0.626077,-4.956544 0.976172,-1.548753 2.882974,-2.490714 4.034622,-2.366672 1.151649,0.124042 1.548091,1.314059 2.189525,2.023802 0.641433,0.709742 1.527814,0.939178 2.41844,0.737168 0.890626,-0.202011 1.785442,-0.835445 2.332542,-1.526128 0.5471,-0.690683 0.746456,-1.438571 1.826953,-1.226212 1.080497,0.212359 3.042052,1.384931 3.98907,2.363116 0.947018,0.978185 0.879462,1.761929 0.830508,2.848741 -0.04895,1.086812 -0.0793,2.476621 -0.369056,3.267734 -0.289753,0.791113 -0.838888,0.983494 -1.314178,1.004252 -0.475289,0.02076 -0.876707,-0.130106 -1.265488,-0.444277 -0.388782,-0.31417 -0.764905,-0.791626 -0.952971,-1.702331 -0.188066,-0.910705 -0.188066,-2.254596 -0.656673,-3.151539 -0.468608,-0.896944 -1.405783,-1.346894 -2.720089,-1.525312 -1.314306,-0.178418 -3.005658,-0.0853 -4.352362,0.217358 -1.346704,0.302656 -2.348686,0.814827 -2.85664,1.488926 -0.507954,0.674099 -0.521857,1.510082 -0.522263,2.216121 -4.07e-4,0.706039 0.01268,1.282093 -0.179951,1.707491 -0.192633,0.425398 -0.590976,0.700119 -1.208446,0.662929 z"
         id="path4" /><path
         style="fill:#ff7f2a;stroke:#241f1c;stroke-width:0.529167"
         d="m 19.666106,51.466965 c 2.090748,0.08623 6.272244,0.258695 8.351325,0.115408 2.079081,-0.143286 2.055748,-0.602304 1.976839,-2.089495 -0.07891,-1.487191 -0.213391,-4.002444 -0.93115,-5.910751 -0.717759,-1.908308 -2.018742,-3.209566 -3.235522,-3.855493 -1.21678,-0.645927 -2.349286,-0.636497 -3.482348,-0.151246 -1.133062,0.485252 -2.266611,1.446287 -3.031826,2.118344 -0.765214,0.672057 -1.162057,1.055101 -1.347702,2.067664 -0.185644,1.012563 -0.160085,2.65457 -0.189946,4.029388 -0.02986,1.374819 -0.115138,2.482373 -0.157777,3.036162 -0.04264,0.553788 -0.04264,0.553787 2.048107,0.640019 z"
         id="path8" /><path
         style="fill:#53676c;stroke:#1c2224;stroke-width:0.529167"
         d="m 46.288039,14.722536 c 1.214482,0.01895 3.64345,0.05686 4.861553,0.335198 1.218102,0.278334 1.225342,0.797075 1.16344,1.415973 -0.0619,0.618897 -0.19294,1.337912 -0.694404,2.077996 -0.501463,0.740084 -1.373314,1.501192 -2.368069,1.723001 -0.994755,0.22181 -2.11235,-0.09568 -2.859188,-0.5362 -0.746838,-0.440519 -1.122882,-1.004039 -1.280723,-1.863708 -0.15784,-0.859669 -0.09747,-2.01543 -0.06729,-2.593322 0.03018,-0.577892 0.0302,-0.577892 1.244682,-0.558938 z"
         id="path5" /><rect
         style="fill:#536c67;stroke:#0b2228;stroke-width:0.483963"
         id="rect6"
         width="28.122511"
         height="6.6008844"
         x="22.538883"
         y="4.1421094"
         rx="2.2836866"
         ry="2.7398512" /><ellipse
         style="fill:#00222b;stroke:#00222b;stroke-width:0.529167"
         id="path2"
         cx="23.728954"
         cy="44.414368"
         rx="1.9068911"
         ry="1.863571" /><ellipse
         style="fill:#004455;stroke:#0b2228;stroke-width:0.529167"
         id="path3"
         cx="47.758202"
         cy="7.4503446"
         rx="3.5961125"
         ry="3.5006058" /><rect
         style="fill:#6f918a;stroke:#0b2228;stroke-width:0.657045"
         id="rect5"
         width="29.268181"
         height="7.4554095"
         x="-14.825766"
         y="20.43252"
         rx="3.7205033"
         ry="3.7277048"
         transform="matrix(0.67617826,-0.73673805,0.74911709,0.66243761,0,0)" /><ellipse
         style="fill:#004455;stroke:#0b2228;stroke-width:0.622548"
         id="path1"
         cx="9.0650091"
         cy="26.088064"
         rx="4.2878151"
         ry="4.3557048" /><circle
         style="fill:#004455;stroke:#0b2228;stroke-width:0.65217"
         id="path6"
         cx="25.968836"
         cy="7.7020993"
         r="3.860779" /><path
         style="fill:#0066ff;stroke:#0b2228;stroke-width:0.529167"
         d="m 35.618602,35.792424 c -0.01423,-0.542709 -0.04271,-1.628128 0.608669,-2.151588 0.651373,-0.52346 1.982534,-0.484963 2.672907,-1.315907 0.690373,-0.830943 0.739926,-2.531261 0.81339,-3.485315 0.07346,-0.954054 0.170833,-1.161804 0.554571,-1.097808 0.383738,0.064 1.053817,0.39973 1.640221,0.314027 0.586404,-0.0857 1.089096,-0.592829 1.642769,-0.904516 0.553672,-0.311687 1.158287,-0.427917 1.711456,0.115538 0.553169,0.543456 1.054859,1.746553 1.666482,2.440365 0.611624,0.693812 1.333142,0.878306 2.068399,0.755064 0.735258,-0.123242 1.484211,-0.554205 1.860128,-1.09944 0.375917,-0.545235 0.378783,-1.204709 0.726384,-1.689164 0.347601,-0.484456 1.03991,-0.793868 1.743871,-0.76202 0.703961,0.03185 1.419532,0.404944 1.920883,0.70092 0.501352,0.295976 0.788457,0.514815 1.130974,0.557353 0.342517,0.04254 0.740427,-0.09122 0.984511,0.711209 0.244083,0.802433 0.33433,2.540997 0.08815,3.427307 -0.246184,0.886309 -0.828778,0.920332 -1.365691,1.082011 -0.536912,0.161678 -1.028111,0.451001 -1.347393,0.943354 -0.319283,0.492353 -0.466632,1.187702 -0.293852,1.904684 0.172781,0.716983 0.665676,1.455554 1.36342,1.92693 0.697745,0.471376 1.600292,0.675536 1.977357,1.647982 0.377065,0.972446 0.228635,2.713108 -0.108374,3.740581 -0.337009,1.027472 -0.862575,1.341713 -1.735303,1.43322 -0.872728,0.09151 -2.092561,-0.03972 -2.895341,0.0083 -0.80278,0.04806 -1.188469,0.275392 -1.381317,0.681655 -0.192848,0.406263 -0.192848,0.991426 -0.477787,1.538157 -0.284939,0.546731 -0.854798,1.054999 -1.504199,1.370678 -0.649402,0.315679 -1.378305,0.438754 -1.966898,0.248226 -0.588594,-0.190528 -1.036844,-0.694643 -1.330955,-1.333328 -0.294112,-0.638685 -0.43407,-1.4119 -1.363372,-1.833424 -0.929302,-0.421523 -2.647874,-0.491338 -3.771231,-0.667009 -1.123357,-0.175671 -1.651442,-0.457186 -1.843551,-1.386121 -0.192109,-0.928936 -0.04824,-2.505223 -0.05862,-3.383716 -0.01038,-0.878493 -0.175009,-1.059154 -0.45632,-1.230863 -0.28131,-0.17171 -0.679285,-0.334461 -1.177505,-0.46938 -0.498219,-0.134918 -1.096656,-0.241998 -1.460457,-0.603247 -0.363802,-0.361248 -0.492954,-0.97664 -0.557531,-1.284343 -0.06458,-0.307702 -0.06461,-0.307702 -0.07885,-0.850411 z"
         id="path7" /></g></g></svg>
