<?xml version="1.0" encoding="UTF-8" standalone="no"?>
<!-- Created with Inkscape (http://www.inkscape.org/) -->

<svg
   width="63.999996"
   height="63.999996"
   viewBox="0 0 16.933332 16.933332"
   version="1.1"
   id="svg1"
   xml:space="preserve"
   xmlns="http://www.w3.org/2000/svg"
   xmlns:svg="http://www.w3.org/2000/svg"><defs
     id="defs1" /><g
     id="layer1"><rect
       style="fill:#ffffff;stroke:#000000;stroke-width:0.537239"
       id="rect20"
       width="14.859151"
       height="14.499949"
       x="1.1209968"
       y="1.326254"
       ry="2.9381576"
       rx="2.9381576" /><g
       id="g1"><path
         style="fill:#fdeae8"
         d="M 2.9699324,4.2060948 C 2.9687746,4.1834848 2.912872,4.1114941 2.8457044,4.0461155 2.6481705,3.8538431 2.6010578,3.7062617 2.6860424,3.5459707 c 0.045643,-0.086088 0.803318,-0.8401237 0.8866199,-0.882361 0.1460151,-0.074035 0.3033713,-0.021858 0.4750248,0.1575122 0.058659,0.061296 0.1306497,0.1215166 0.1599792,0.1338235 0.037049,0.015546 0.040778,0.022892 0.012217,0.024066 -0.02261,9.298e-4 -0.0946,-0.053265 -0.1599789,-0.1204326 C 3.8740567,2.6676455 3.7213245,2.6148891 3.5726623,2.690277 3.4893359,2.7325326 2.7583166,3.4599242 2.7127011,3.5459707 c -0.045669,0.086147 -0.049376,0.2161695 -0.00845,0.2963722 0.016345,0.032032 0.089737,0.1200275 0.1630927,0.1955465 0.075471,0.077696 0.1271487,0.1529379 0.1190343,0.1733108 -0.010863,0.027274 -0.014851,0.026037 -0.016445,-0.00511 z"
         id="path9" /><path
         style="fill:#6ed2a8"
         d="m 9.9572294,11.446269 c 0.037997,-0.04399 0.4381896,-0.583925 0.8893176,-1.199844 0.759641,-1.0371293 0.91261,-1.2405613 0.852093,-1.1331866 -0.064,0.1135572 -1.657043,2.2647046 -1.7277354,2.3330306 l -0.08276,0.07999 z M 9.547306,10.254368 C 9.4967135,10.19134 9.3575074,10.006202 9.2379591,9.8429507 9.1184109,9.6796991 8.9886139,9.5251724 8.9495212,9.4995579 8.9104286,9.4739434 8.8173902,9.4431282 8.7427692,9.4310797 l -0.1356744,-0.021907 0.1340811,0.00753 c 0.075527,0.00424 0.1679793,0.029742 0.2117033,0.058391 0.042692,0.027973 0.2133669,0.233963 0.3792771,0.4577554 0.1659103,0.2237929 0.3121993,0.4068959 0.3250868,0.4068959 0.012887,0 0.3024653,-0.380951 0.6435059,-0.8465572 0.341041,-0.4656062 0.651414,-0.8810301 0.689718,-0.9231643 0.08851,-0.097367 0.213451,-0.1509463 0.342084,-0.1467032 0.08795,0.0029 0.08247,0.006 -0.04281,0.024198 -0.07901,0.011479 -0.174671,0.04403 -0.212583,0.072335 -0.03791,0.028305 -0.363227,0.4513631 -0.722923,0.9401286 -0.3596964,0.4887656 -0.6677069,0.8932351 -0.6844679,0.8988221 -0.016761,0.0056 -0.071868,-0.04141 -0.1224611,-0.104438 z"
         id="path8" /><path
         style="fill:#fb786c"
         d="m 5.0313593,9.0403102 c 0.013088,-0.019257 0.019087,-0.038441 0.013332,-0.042629 C 5.038935,8.9934921 4.9446294,8.9377042 4.8351231,8.8737078 3.9491366,8.3559301 3.3443491,7.4567214 3.2072286,6.4533255 3.1571844,6.0871212 3.1863683,5.5142688 3.2715725,5.1903125 3.5269184,4.2194579 4.1094604,3.477745 4.9756319,3.0206442 5.4118497,2.7904409 5.8415367,2.6766338 6.4125914,2.6400503 c 0.267207,-0.017118 0.3133558,-0.014205 0.322445,0.020355 0.00625,0.023769 0.1060941,0.071351 0.2431213,0.1158629 0.1278827,0.041542 0.3383867,0.1285304 0.4677866,0.1933082 0.1294,0.064778 0.2566587,0.1177779 0.2827972,0.1177779 0.026139,0 0.1283081,-0.07799 0.2270434,-0.1733109 0.098735,-0.095321 0.199279,-0.1733108 0.2234302,-0.1733108 0.092006,0 0.1999844,0.087901 0.5811931,0.473128 0.4817893,0.4868675 0.4803016,0.4817855 0.2199714,0.7514407 -0.095321,0.098735 -0.1733108,0.1938226 -0.1733108,0.211305 0,0.017482 0.048318,0.1278864 0.1073738,0.2453422 0.059056,0.1174558 0.1316023,0.275024 0.1612148,0.3501515 l 0.053841,0.1365954 -0.084422,0.087101 C 8.9459384,5.098081 8.9165409,5.2195383 8.9148825,5.5337031 c -9.152e-4,0.1733637 -0.00931,0.2199714 -0.039639,0.2199714 -0.067402,0 -0.5290988,0.1632542 -0.6873341,0.2430389 -0.083904,0.042306 -0.1648937,0.07692 -0.1799767,0.07692 -0.015697,0 -0.027423,-0.067406 -0.027423,-0.1576337 0,-1.1955616 -1.1081029,-2.1493653 -2.2965174,-1.976736 -0.8854436,0.1286198 -1.5594719,0.7776241 -1.7182226,1.654432 -0.047455,0.2621021 -0.046837,0.4226585 0.00272,0.7068362 0.1089706,0.6248836 0.5028275,1.1587787 1.0601226,1.4370553 0.3014037,0.1505012 0.4896467,0.2011566 0.8215814,0.2210841 l 0.2560398,0.015371 -0.087214,0.1792057 c -0.087432,0.1796536 -0.2515546,0.6392847 -0.2515546,0.7044879 0,0.0258 -0.080227,0.038299 -0.3112746,0.048495 -0.3027885,0.013362 -0.3131469,0.015854 -0.3799507,0.091414 -0.037772,0.042723 -0.057967,0.061922 -0.044879,0.042665 z"
         id="path7" /><path
         style="fill:#d37b86"
         d="m 4.9409044,9.173841 c 0,-0.047606 0.1795922,-0.1956191 0.2681848,-0.2210272 0.050279,-0.01442 0.1951145,-0.026218 0.3218566,-0.026218 h 0.2304403 l 0.083425,-0.257718 c 0.079825,-0.2465986 0.3041388,-0.7554837 0.3330127,-0.7554837 0.00759,0 -0.035626,0.1029941 -0.096028,0.2288758 C 6.0213938,8.2681516 5.928766,8.4991216 5.8759569,8.6555366 l -0.096017,0.2843908 -0.2928675,0.01472 c -0.316702,0.015918 -0.3705916,0.034012 -0.4766339,0.1600359 -0.038244,0.04545 -0.069534,0.072071 -0.069534,0.059158 z"
         id="path6" /><path
         style="fill:#f9685a"
         d="M 3.6210758,9.1417525 C 3.5917463,9.1288549 3.3847732,8.933314 3.1611356,8.7072172 2.7744687,8.3162985 2.7545217,8.2909543 2.7545217,8.190584 c 0,-0.093638 0.018053,-0.1234123 0.1599793,-0.2638581 0.087988,-0.087071 0.1599792,-0.1808557 0.1599792,-0.2084116 0,-0.027556 -0.048404,-0.1479159 -0.1075643,-0.2674667 C 2.9077555,7.3312969 2.820635,7.1194974 2.7733148,6.9801822 L 2.6872779,6.7268817 2.4234501,6.7114041 C 2.1784578,6.6970315 2.1551599,6.6907387 2.0971188,6.6232619 2.0354759,6.5515978 2.0346153,6.5421568 2.0346153,5.9376185 V 5.3246397 l 0.065446,-0.065446 c 0.059485,-0.059485 0.086805,-0.065483 0.299961,-0.065854 0.1289833,-2.246e-4 0.2486552,-0.0094 0.2659375,-0.020393 0.017282,-0.010992 0.067985,-0.1337917 0.1126715,-0.2728896 0.044687,-0.1390978 0.129534,-0.3470835 0.1885489,-0.4621905 0.059015,-0.115107 0.1073,-0.2280731 0.1073,-0.2510359 0,-0.022963 -0.071991,-0.1167213 -0.1599792,-0.2083522 C 2.7695807,3.827559 2.7545217,3.8010795 2.7545217,3.6971732 c 0,-0.1125425 0.00793,-0.1226325 0.4208684,-0.5355719 0.4129394,-0.4129394 0.4230294,-0.4208684 0.5355719,-0.4208684 0.1039063,0 0.1303858,0.015059 0.2813052,0.1599792 0.091631,0.087989 0.1853895,0.1599793 0.2083522,0.1599793 0.022963,0 0.1359289,-0.048285 0.2510359,-0.1073 0.115107,-0.059015 0.3230927,-0.143862 0.4621906,-0.1885489 0.1390978,-0.044687 0.2618981,-0.095389 0.2728895,-0.1126715 0.010991,-0.017282 0.020168,-0.1369542 0.020393,-0.2659375 3.711e-4,-0.2131561 0.00637,-0.2404756 0.065854,-0.299961 l 0.065446,-0.065446 h 0.6129788 c 0.6077728,0 0.6136076,5.409e-4 0.6870171,0.063685 0.070444,0.060593 0.074076,0.075157 0.074811,0.2999611 l 7.724e-4,0.2362759 -0.3028342,0.018922 C 5.8490442,2.6747948 5.4104033,2.7912042 4.9756319,3.0206442 4.1094604,3.477745 3.5269184,4.2194579 3.2715725,5.1903125 3.1863683,5.5142688 3.1571844,6.0871212 3.2072286,6.4533255 3.3452235,7.4631197 3.9740195,8.3900448 4.8585964,8.887651 4.961846,8.945733 5.0463338,8.9992532 5.0463472,9.0065856 c 1.33e-5,0.00733 -0.021349,0.041112 -0.047472,0.075066 L 4.9513784,9.1433858 4.7690236,9.0747476 C 4.6687284,9.0369966 4.507785,8.964222 4.4113716,8.9130263 4.3149582,8.8618306 4.2180071,8.8199432 4.1959246,8.8199432 c -0.022082,0 -0.1124887,0.071696 -0.2009027,0.1593238 -0.164888,0.1634223 -0.2689711,0.2086481 -0.3739461,0.1624855 z"
         id="path5" /><path
         style="fill:#5a83d8"
         d="m 10.998814,14.509558 -0.0054,-0.296274 -0.446608,-0.01529 C 9.8853428,14.175347 9.3804169,14.052265 8.825392,13.778369 7.0833554,12.918701 6.1544424,10.998687 6.5667028,9.1097773 6.8825729,7.6625124 7.9547494,6.4720014 9.359482,6.0087631 9.7544969,5.8784992 10.042101,5.8309937 10.533511,5.814841 l 0.45994,-0.015118 0.0054,-0.2963217 0.0054,-0.2963218 0.01464,0.315027 0.01463,0.315027 0.314451,0.102566 c 0.172948,0.056411 0.447503,0.1696161 0.610123,0.2515661 0.16262,0.08195 0.30938,0.149 0.326134,0.149 0.01675,0 0.11979,-0.089929 0.22897,-0.1998429 0.221656,-0.2231454 0.324189,-0.273813 0.462037,-0.2283192 0.122716,0.0405 1.12493,1.0523792 1.143704,1.1547344 0.02571,0.1401506 -0.01288,0.2152488 -0.223155,0.4342731 -0.115101,0.1198922 -0.209275,0.2327608 -0.209275,0.2508191 0,0.018058 0.07157,0.1758185 0.159053,0.3505782 0.08748,0.1747598 0.197416,0.440671 0.244303,0.5909139 0.04689,0.1502429 0.09595,0.2871769 0.109018,0.3042977 0.01504,0.019702 0.140525,0.034383 0.341848,0.039995 l 0.318079,0.00887 0.0871,0.087127 0.0871,0.087127 0.0073,0.7394323 c 0.0065,0.6638918 0.0024,0.7489668 -0.03999,0.8327538 -0.07331,0.144772 -0.186147,0.186552 -0.503934,0.186601 -0.184559,2.8e-5 -0.278135,0.01059 -0.295627,0.03337 -0.01408,0.01833 -0.06396,0.156255 -0.110844,0.306497 -0.04689,0.150243 -0.156823,0.416155 -0.244303,0.590914 -0.08748,0.17476 -0.159053,0.334098 -0.159053,0.354084 0,0.01999 0.09038,0.126027 0.200837,0.235645 0.115306,0.114428 0.209538,0.232717 0.221267,0.277756 0.04756,0.182643 0.02634,0.213359 -0.5399,0.781439 l -0.538183,0.53993 h -0.141875 c -0.141356,0 -0.142672,-7.79e-4 -0.360408,-0.213305 -0.120193,-0.117318 -0.234719,-0.213306 -0.254502,-0.213306 -0.01978,0 -0.16656,0.0668 -0.326173,0.148444 -0.159612,0.08164 -0.43057,0.19448 -0.602128,0.250747 l -0.311924,0.102303 -0.01463,0.315846 -0.01464,0.315846 z m -0.270028,-1.592257 c 0.793599,-0.204438 1.421075,-0.660132 1.839229,-1.335712 C 13.584413,9.9394737 12.796085,7.771195 10.958368,7.1542939 10.455545,6.9855016 9.7926758,6.9640079 9.2736748,7.0996672 8.7962909,7.2244485 8.3266531,7.4835608 7.9470902,7.8315811 7.5872298,8.1615362 7.2443854,8.7485044 7.1110828,9.262871 c -0.090736,0.3501184 -0.1131425,0.851315 -0.054113,1.210423 0.2139399,1.301503 1.2260381,2.300997 2.5366631,2.505072 0.2804597,0.04367 0.8468661,0.0132 1.1351531,-0.06106 z"
         id="path4" /><path
         style="fill:#517ed6"
         d="M 10.220219,14.22934 C 9.1987595,14.111971 8.2929139,13.659671 7.5883777,12.915231 7.0464095,12.342567 6.6820522,11.643621 6.5098779,10.846347 c -0.05203,-0.24093 -0.060459,-0.358032 -0.060459,-0.839891 0,-0.4823116 0.0084,-0.5987356 0.06057,-0.8398912 C 6.6979114,8.2979564 7.0622127,7.6279977 7.6853356,7.0050738 8.3045367,6.3860706 9.0070704,6.0097362 9.8735969,5.8328624 10.187148,5.7688609 10.993451,5.7255556 10.993451,5.7727167 c 0,0.016605 -0.177147,0.032829 -0.45994,0.042124 -0.49141,0.016153 -0.7790141,0.063658 -1.174029,0.1939221 C 8.126195,6.4154638 7.1209391,7.405942 6.7028826,8.6263093 6.0108991,10.646309 6.9122842,12.83428 8.825392,13.778369 c 0.5557194,0.274239 1.0598012,0.396978 1.723623,0.419688 0.260291,0.0089 0.43387,0.0248 0.413279,0.03786 -0.04413,0.02797 -0.474584,0.02416 -0.742075,-0.0066 z"
         id="path3" /><path
         style="fill:#49c893"
         d="M 9.4869804,11.529938 C 9.3756882,11.478208 9.3231959,11.415734 8.8505345,10.772465 8.2859921,10.004152 8.2946132,10.018145 8.2927854,9.8671886 8.2898408,9.6239904 8.4419316,9.4582114 8.6846411,9.4400656 8.8988846,9.424048 8.966385,9.4779892 9.3136696,9.9427382 c 0.1686448,0.2256868 0.3238812,0.4103388 0.3449697,0.4103388 0.021089,0 0.3333732,-0.4008953 0.6939657,-0.8908788 0.360593,-0.4899836 0.687796,-0.9148998 0.727118,-0.9442584 0.110665,-0.082623 0.328163,-0.08852 0.457548,-0.012406 0.147092,0.086531 0.208412,0.2107068 0.196271,0.3974568 -0.0097,0.1485756 -0.01445,0.1561243 -0.634174,0.9998701 -1.063591,1.4480593 -1.1444624,1.5546463 -1.2142816,1.6003933 -0.090543,0.05933 -0.2979686,0.07323 -0.398106,0.02668 z"
         id="path2" /><path
         style="fill:#4576d4"
         d="M 9.2006862,14.990731 C 9.0793983,14.924921 9.0470839,14.826293 9.0466293,14.520527 9.0464048,14.369485 9.0371049,14.231565 9.0259629,14.21404 9.0148209,14.196514 8.8740229,14.139415 8.7130785,14.087154 8.5521341,14.034894 8.275212,13.92025 8.0976961,13.83239 7.9201802,13.744531 7.7650196,13.672646 7.7528948,13.672646 c -0.012125,0 -0.1195627,0.09518 -0.2387507,0.211521 -0.2222713,0.216954 -0.3055427,0.261024 -0.4335177,0.229436 -0.046419,-0.01146 -0.2738833,-0.217777 -0.6199195,-0.562291 L 5.9141113,13.00712 v -0.131859 c 0,-0.129171 0.00449,-0.136455 0.2199714,-0.357223 0.1209843,-0.123949 0.2199714,-0.237102 0.2199714,-0.25145 0,-0.01435 -0.062689,-0.144798 -0.1393097,-0.289888 C 6.1381241,11.831611 6.020277,11.550922 5.952862,11.352947 L 5.8302893,10.992994 5.512247,10.979663 C 4.975181,10.95715 4.9894337,10.985414 4.9997468,9.9633392 l 0.00782,-0.774556 0.087076,-0.077767 c 0.085368,-0.076242 0.093019,-0.077767 0.3900175,-0.077767 0.2171421,0 0.3111471,-0.00989 0.3319141,-0.03491 0.015935,-0.019201 0.072492,-0.1686268 0.1256828,-0.3320584 0.053191,-0.1634316 0.1676056,-0.437413 0.2542557,-0.6088475 0.08665,-0.1714344 0.1575456,-0.317436 0.1575456,-0.3244479 0,-0.00701 -0.098987,-0.1141623 -0.2199714,-0.238112 C 5.9188746,7.2743901 5.9141113,7.2666679 5.9141113,7.138258 V 7.007006 L 6.467453,6.4536642 7.0207948,5.9003225 h 0.131252 c 0.1284099,0 0.1361321,0.00476 0.3566151,0.2199714 0.1239497,0.1209843 0.2311001,0.2199714 0.238112,0.2199714 0.00701,0 0.1530135,-0.070896 0.3244479,-0.1575456 C 8.2426563,6.0960696 8.5166377,5.9816545 8.6800693,5.928464 8.843501,5.8752734 8.9929272,5.8187161 9.0121277,5.8027812 c 0.025023,-0.020767 0.03491,-0.114772 0.03491,-0.3319141 0,-0.2969991 0.00153,-0.3046495 0.077767,-0.3900175 l 0.077767,-0.087076 0.7745559,-0.00782 c 0.6602044,-0.00666 0.7864314,-0.00167 0.8549944,0.03378 0.127621,0.065996 0.161329,0.1625262 0.161329,0.4619983 V 5.745706 L 10.573506,5.760709 C 9.4316953,5.8015063 8.4784562,6.2122067 7.6853356,7.0050738 7.0622127,7.6279977 6.6979114,8.2979564 6.5099887,9.1665648 c -0.052174,0.2411556 -0.06057,0.3575796 -0.06057,0.8398912 0,0.481859 0.00843,0.598961 0.060459,0.839891 0.300164,1.389946 1.2156587,2.510859 2.5045638,3.066537 0.5086161,0.219276 1.0244305,0.325778 1.5989405,0.330138 l 0.379832,0.0029 1.19e-4,0.274622 c 1.34e-4,0.309572 -0.03239,0.406031 -0.158988,0.471496 -0.114015,0.05896 -1.5246718,0.05784 -1.633659,-0.0013 z"
         id="path1" /></g></g></svg>
