<?xml version="1.0" encoding="UTF-8" standalone="no"?>
<!-- Created with Inkscape (http://www.inkscape.org/) -->

<svg
   width="63.999996"
   height="63.999996"
   viewBox="0 0 16.933332 16.933332"
   version="1.1"
   id="svg1"
   xml:space="preserve"
   xmlns="http://www.w3.org/2000/svg"
   xmlns:svg="http://www.w3.org/2000/svg"><defs
     id="defs1" /><g
     id="layer1"><g
       id="g15"
       transform="matrix(0.94788083,0,0,0.94788083,0.56696321,0.14488212)"><rect
         style="fill:#ffffff;stroke:#000000;stroke-width:0.537819;stroke-linecap:butt;stroke-linejoin:miter;stroke-miterlimit:4;stroke-dasharray:none;stroke-opacity:1"
         id="rect9"
         width="15.123615"
         height="15.271113"
         x="0.77226037"
         y="1.1438005"
         rx="2.2048585"
         ry="2.2048585" /><g
         id="g1"
         transform="matrix(1.0403922,0,0,0.95728914,-0.48326745,0.91919684)"
         style="stroke-width:0.509013;stroke-dasharray:none"><path
           style="fill:#fca83a;stroke-width:0.509013;stroke-dasharray:none"
           d="M 13.5421,7.1860386 C 13.200668,7.1680094 12.87141,7.1445049 12.810418,7.1338063 L 12.699521,7.1143543 12.58259,7.0352824 12.465659,6.9562106 12.396385,6.849341 C 12.300623,6.7016077 12.278339,6.5935826 12.211423,5.9526938 l -0.05838,-0.5591255 0.169424,0.1895164 0.169425,0.1895165 0.12902,0.066747 c 0.07096,0.036711 0.181525,0.074094 0.245698,0.083074 l 0.116679,0.016327 0.01328,0.057299 c 0.0073,0.031514 0.0215,0.1272741 0.03155,0.2127994 l 0.01826,0.1555005 0.03995,0.022826 0.03995,0.022826 0.294909,-0.013286 0.294909,-0.013287 0.317215,0.3878238 c 0.174469,0.2133031 0.326218,0.4029939 0.337221,0.421535 l 0.02001,0.033711 -0.113829,-0.00384 c -0.06261,-0.00211 -0.393183,-0.01859 -0.734616,-0.03662 z m 0.89143,-0.685067 C 14.248354,6.2742176 14.096846,6.072107 14.096846,6.0518369 c 0,-0.02027 0.02378,-0.140951 0.05283,-0.2681798 0.08633,-0.377983 0.09269,-0.3612074 -0.172921,-0.4560323 l -0.172684,-0.061649 -0.0079,-0.1996317 -0.0079,-0.1996316 -0.05706,-0.1136105 C 13.699831,4.690616 13.62054,4.5722899 13.55501,4.4901545 c -0.06553,-0.082135 -0.109113,-0.149337 -0.09685,-0.149337 0.06552,0 1.113041,0.3351764 1.180264,0.3776517 0.119136,0.075276 0.215255,0.1882649 0.275236,0.3235416 l 0.05381,0.1213604 -5.7e-4,0.1618138 c -3.14e-4,0.088998 -0.04469,0.4827208 -0.09861,0.8749404 L 14.77025,6.913252 Z M 5.3030382,4.4554351 C 5.27433,4.3553128 5.2310317,4.202399 5.2068197,4.1156266 L 5.1627977,3.9578588 5.1852527,3.9377118 C 5.2113237,3.9143198 9.0268658,2.7963676 9.0382814,2.808776 9.0499284,2.821436 9.2368044,3.5137044 9.229447,3.5169361 9.20056,3.5296241 5.3882577,4.6377672 5.3739287,4.6376409 5.3636477,4.6375503 5.3317467,4.5555579 5.3030382,4.4554351 Z"
           id="path8" /><path
           style="fill:#738ca2;stroke-width:0.509013;stroke-dasharray:none"
           d="M 5.3282558,9.9794447 C 5.3264121,9.9372283 3.2169493,6.6791046 3.1820973,6.6646436 c -0.011916,-0.00494 -0.021666,-0.020962 -0.021666,-0.035594 0,-0.029683 -0.1494343,-0.2639546 -0.195196,-0.3060127 -0.016139,-0.014833 -0.053119,-0.074575 -0.082177,-0.1327598 -0.029058,-0.058185 -0.085523,-0.1391697 -0.1254782,-0.179966 -0.039955,-0.040796 -0.072645,-0.080798 -0.072645,-0.088893 0,-0.00809 -0.055441,-0.1022141 -0.1232029,-0.2091537 C 2.4939708,5.6053243 2.4167027,5.4591832 2.3900254,5.3875059 L 2.3415213,5.2571835 V 5.0562172 4.8552508 L 2.3962192,4.7059999 2.4509171,4.556749 2.5800386,4.4125146 2.7091601,4.2682802 2.8753588,4.191606 3.0415575,4.1149318 3.1969258,4.103016 3.3522941,4.0911 3.4938505,4.123442 3.6354068,4.155784 3.7945373,4.2642698 3.9536677,4.3727556 4.3759599,5.0164379 c 0.2322607,0.3540252 0.4222922,0.6504103 0.4222922,0.6586336 0,0.039784 0.1231048,0.2023509 0.1534537,0.2026439 l 0.03458,3.338e-4 -0.015051,0.024863 -0.015051,0.024863 0.9786857,1.5046225 c 0.5382772,0.8275423 0.9990421,1.5285073 1.023922,1.5577 l 0.045236,0.053078 -0.065315,-0.045331 -0.065315,-0.045332 -0.1856415,3.201e-4 -0.1856415,3.201e-4 -0.1360398,0.03698 C 6.1805878,9.0405519 5.9773674,9.1576348 5.848201,9.2884973 5.7228881,9.4154559 5.3897787,9.8655355 5.3542672,9.9558743 l -0.024337,0.061912 z m -1.7810786,-4.31898 0.1128453,-0.05577 0.083715,-0.09734 C 3.7897806,5.4538173 3.8449851,5.3671747 3.866414,5.3148153 L 3.905376,5.2196163 V 5.0689793 4.9183422 L 3.8671125,4.8251046 C 3.8460677,4.773824 3.7948433,4.6906908 3.7532804,4.6403641 L 3.6777116,4.5488611 3.5445498,4.485556 3.411388,4.4222508 3.2660974,4.4225796 3.1208069,4.4229085 3.0145548,4.4721849 C 2.8014955,4.5709953 2.6635851,4.7646404 2.6401866,4.9978491 l -0.013901,0.1385526 0.029247,0.1104617 c 0.016086,0.060754 0.063856,0.1592369 0.1061551,0.218851 l 0.076908,0.1083892 0.1396883,0.071066 0.1396883,0.071066 h 0.15818 0.1581799 z m 7.8946478,-0.5536523 -0.07248,-0.097012 v -0.070047 -0.070047 l 0.06934,-0.056449 c 0.03814,-0.031047 0.06934,-0.071163 0.06934,-0.089147 0,-0.017984 0.01261,-0.032698 0.02802,-0.032698 0.04188,0 1.304629,-1.0779034 1.314613,-1.1221757 l 0.0086,-0.03815 0.0226,0.01426 c 0.01243,0.00784 0.06504,-0.01514 0.116905,-0.051075 l 0.0943,-0.065335 0.05276,0.014086 c 0.02902,0.00775 0.08844,0.055574 0.132052,0.1062814 l 0.07929,0.092195 v 0.06379 0.06379 l -0.165103,0.1494357 c -0.09081,0.08219 -0.411766,0.3572646 -0.713244,0.6112774 -0.301478,0.2540129 -0.548142,0.4731762 -0.548142,0.4870294 0,0.013853 -0.01315,0.025188 -0.02922,0.025188 -0.01607,0 -0.07425,0.036408 -0.129279,0.080907 l -0.100061,0.080907 h -0.07892 -0.07892 z M 10.064969,4.0384517 9.9823537,4.0112826 9.9212363,3.8863473 C 9.8876218,3.817633 9.8575216,3.7370437 9.854347,3.7072601 9.843726,3.6076155 9.4710778,2.2777869 9.4517839,2.2706778 9.4413163,2.2668209 9.4346626,2.198947 9.436998,2.1198469 L 9.441248,1.9760287 9.471746,1.9178497 C 9.48852,1.8858517 9.531989,1.8397737 9.568343,1.8154555 l 0.066099,-0.044215 0.824527,-0.2373724 c 0.45349,-0.1305548 0.806696,-0.2395221 0.784902,-0.2421496 l -0.03962,-0.00478 0.07925,-0.017711 c 0.04359,-0.00974 0.111819,-0.013014 0.151625,-0.00727 l 0.07238,0.010438 -0.01211,0.020005 c -0.0067,0.011003 0.01666,0.033389 0.05183,0.049748 l 0.06394,0.029743 0.04,0.078976 c 0.022,0.043437 0.08244,0.2351054 0.134304,0.4259306 0.05187,0.1908252 0.116681,0.4197711 0.144033,0.5087687 0.09886,0.3216569 0.21335,0.811256 0.212945,0.9105989 l -4.15e-4,0.1015297 -0.08585,0.093063 -0.08585,0.093063 -0.856652,0.2436533 c -0.883553,0.2513049 -0.909934,0.2566122 -1.0487,0.2109778 z m 1.014191,-0.7731598 0.106199,-0.055311 0.09105,-0.1086017 0.09106,-0.1086018 0.03066,-0.1044669 c 0.03809,-0.1297972 0.03895,-0.2824043 0.0023,-0.4170033 l -0.02803,-0.1030425 -0.0955,-0.1079201 C 11.166506,2.1355587 11.029401,2.0572047 10.878317,2.03254 l -0.106236,-0.017343 -0.132939,0.032559 -0.132939,0.032559 -0.123662,0.1111286 -0.123663,0.1111287 -0.04846,0.1089199 -0.04846,0.1089198 -5.8e-4,0.1559378 -5.8e-4,0.1559378 0.04096,0.1002675 c 0.103745,0.2539388 0.367436,0.4191818 0.635889,0.3984827 l 0.135316,-0.010433 z"
           id="path7" /><path
           style="fill:#6b8398;stroke-width:0.509013;stroke-dasharray:none"
           d="M 2.5578644,5.7642339 C 2.4985272,5.6710861 2.4178396,5.5230382 2.3785585,5.4352386 L 2.3071385,5.2756029 2.3046085,5.0846419 2.3020785,4.893681 2.3367595,4.7723206 C 2.3558335,4.7055726 2.4152305,4.5846255 2.4687523,4.5035497 L 2.5660643,4.3561392 2.6774808,4.2698352 C 2.7387598,4.2223682 2.8576339,4.157076 2.9416454,4.1247422 l 0.1527481,-0.058789 0.22454,0.011329 0.2245399,0.01133 0.1594662,0.083132 0.1594662,0.083132 0.1138284,0.1260721 c 0.1094879,0.1212647 0.808062,1.1817902 0.8404632,1.2759315 0.00868,0.025228 0.044353,0.085312 0.079266,0.1335191 0.034913,0.048207 0.053958,0.087499 0.042322,0.087315 C 4.9176074,5.8773876 4.7982546,5.7046676 4.7982546,5.67507 c 0,-0.00822 -0.1900315,-0.3046084 -0.4222922,-0.6586336 L 3.9536677,4.3727549 3.7945373,4.2642691 3.6354068,4.1557833 3.4938505,4.1234418 3.3522941,4.0911003 3.1969258,4.103016 3.0415575,4.1149318 2.8753588,4.191606 2.7091601,4.2682802 2.5800386,4.4125146 2.4509171,4.556749 2.3962192,4.7059999 2.3415213,4.8552508 v 0.2009664 0.2009663 l 0.048504,0.1303224 c 0.026677,0.071677 0.1045781,0.2188168 0.1731129,0.3269766 0.068535,0.1081598 0.1196594,0.201707 0.1136103,0.2078826 -0.00605,0.00618 -0.059547,-0.064983 -0.1188841,-0.1581312 z"
           id="path6" /><path
           style="fill:#5a7285;stroke-width:0.509013;stroke-dasharray:none"
           d="M 2.484426,5.8277718 C 2.427622,5.7850795 2.3455975,5.7091445 2.3021493,5.6590274 L 2.2231526,5.5679053 2.3478243,5.6875837 C 2.5014039,5.8350122 2.5286967,5.8185631 2.4225954,5.64252 2.3783333,5.5690803 2.3226496,5.4555003 2.2988538,5.39012 L 2.2555887,5.2712466 2.2551345,5.0554948 2.2546803,4.839743 2.31184,4.6884015 C 2.3432779,4.6051636 2.4117951,4.4809814 2.4641004,4.412441 L 2.559201,4.2878221 2.6947134,4.1967683 C 2.7692453,4.1466887 2.8940266,4.084349 2.9720052,4.0582356 l 0.1417794,-0.047479 0.2148428,0.011569 0.2148429,0.011569 0.1452905,0.069194 c 0.07991,0.038056 0.1972826,0.1154128 0.2608284,0.171903 L 4.0651271,4.3777009 4.4448978,4.96432 c 0.2088739,0.3226405 0.3797708,0.5964613 0.3797708,0.6084906 0,0.012029 -0.170781,-0.239491 -0.3795134,-0.5589338 C 3.9680693,4.2837466 3.8831831,4.1946154 3.5614972,4.0860293 l -0.1404719,-0.047417 -0.2035157,0.00952 -0.2035157,0.00951 -0.1760157,0.088474 -0.1760157,0.088474 -0.1139918,0.12964 C 2.4852752,4.4355322 2.4067109,4.5498145 2.3733834,4.6181908 l -0.060596,0.1243207 -0.025085,0.1564916 -0.025085,0.1564917 0.028302,0.1601147 0.028302,0.1601148 0.067537,0.1365439 c 0.037145,0.075099 0.1027456,0.1889751 0.1457787,0.2530574 0.097515,0.1452131 0.084497,0.1621103 -0.04811,0.062446 z"
           id="path5" /><path
           style="fill:#566e81;stroke-width:0.509013;stroke-dasharray:none"
           d="m 4.1197454,11.828215 c 0.360899,-0.50239 0.6625334,-0.93034 0.6702987,-0.951 l 0.014119,-0.03756 -0.035976,-0.04685 -0.035976,-0.04685 0.043355,0.03458 0.043355,0.03458 0.098043,-0.136355 0.098043,-0.136355 -0.034459,-0.04655 -0.034459,-0.04655 0.03703,0.03371 c 0.020366,0.01854 0.0451,0.03371 0.054962,0.03371 0.022006,0 0.2837391,-0.355508 0.3576813,-0.485832 0.3084034,-0.5435688 0.670273,-0.8820652 1.0374005,-0.9703949 l 0.1423826,-0.034257 0.1793799,0.015353 0.1793799,0.015353 0.1987437,0.098939 0.1987438,0.098939 0.1345836,0.1452787 0.1345837,0.1452787 0.082601,0.1802054 0.082601,0.1802055 0.011716,0.2066236 0.011716,0.206624 -0.043356,0.152258 c -0.06139,0.215593 -0.083743,0.250412 -0.8336322,1.298598 -0.3710621,0.518667 -0.6726772,0.949496 -0.6702557,0.957399 0.00242,0.0079 -0.6218148,0.01437 -1.3871918,0.01437 H 3.4635655 Z m 2.7451894,-1.003093 0.1212762,-0.04219 0.098054,-0.09722 c 0.05393,-0.05347 0.1200858,-0.146745 0.147014,-0.207276 l 0.04896,-0.110055 V 10.193084 10.017786 L 7.2321152,9.9099102 7.1839913,9.8020343 7.0757706,9.7024227 6.96755,9.6028111 6.829099,9.5608356 C 6.6559075,9.5083275 6.6124077,9.5084502 6.4342631,9.5619494 L 6.2907821,9.6050387 6.167078,9.7352792 6.0433739,9.8655197 6.0153307,9.9686219 c -0.015424,0.056706 -0.02811,0.1672061 -0.028191,0.2455551 l -1.473e-4,0.142454 0.038922,0.0951 c 0.1032825,0.25236 0.329055,0.408725 0.5969715,0.413448 l 0.1207724,0.0021 z M 2.36545,5.6977648 2.2331434,5.5714189 2.1434185,5.3808793 2.0536936,5.1903397 2.0359324,5.0129992 2.0181712,4.8356586 2.0478956,4.6941595 c 0.016348,-0.077824 0.059922,-0.2066666 0.09683,-0.2863158 L 2.2118315,4.263027 2.3278559,4.1312808 2.4438804,3.9995346 2.5987819,3.9152461 2.7536835,3.8309576 3.4589326,3.6274147 C 4.1926214,3.4156638 4.2405433,3.4059217 4.324045,3.4515452 l 0.050649,0.027673 0.063143,0.1408828 c 0.075427,0.1682902 0.4396637,1.491662 0.4580871,1.6643571 0.0071,0.066598 0.024116,0.1424485 0.037802,0.1685561 l 0.024884,0.047468 h -0.024046 c -0.013225,0 -0.043092,0.039442 -0.066369,0.087649 L 4.8258716,5.6757812 4.8252701,5.6133599 4.8246686,5.5509386 4.4448978,4.9643195 4.0651271,4.3777004 3.9495892,4.2749911 C 3.8860434,4.2185009 3.7686706,4.1411446 3.6887608,4.1030881 L 3.5434703,4.0338944 3.3286274,4.0223256 3.1137846,4.0107568 2.9720052,4.0582356 C 2.8940266,4.084349 2.7692453,4.1466887 2.6947134,4.1967683 L 2.559201,4.2878221 2.4641004,4.412441 C 2.3549061,4.5555281 2.276216,4.7532606 2.2511197,4.9476189 l -0.017412,0.1348449 0.027221,0.1438186 c 0.029659,0.1567014 0.090754,0.3051278 0.1988982,0.48321 0.089253,0.1469738 0.069203,0.1444823 -0.094377,-0.011728 z"
           id="path4" /><path
           style="fill:#3b4e63;stroke-width:0.509013;stroke-dasharray:none"
           d="m 2.7334879,13.584758 0.019494,-0.0199 2.0922126,-0.0071 2.0922126,-0.0071 0.010134,0.02697 0.010134,0.02697 H 4.8358343 2.7139934 Z"
           id="path3" /><path
           style="fill:#33465b;stroke-width:0.509013;stroke-dasharray:none"
           d="m 2.7113518,13.618144 0.039625,-0.02614 h 2.0869003 2.0869003 l 0.039625,0.02614 0.039625,0.02614 H 4.8378768 2.6717271 Z m 0.026416,-0.08091 v -0.02697 H 4.8394354 6.941103 l -0.016326,0.02697 -0.016326,0.02697 H 4.8231096 2.7377682 Z"
           id="path2" /><path
           style="fill:#2e4258;stroke-width:0.509013;stroke-dasharray:none"
           d="m 2.0245238,15.020531 c 0,-0.01483 0.011887,-0.02697 0.026417,-0.02697 h 0.026416 V 14.319337 13.645112 H 4.8378769 7.598397 v 0.658534 c 0,0.362194 0.00722,0.677731 0.016034,0.701194 L 7.630465,15.0475 H 4.8274948 2.0245238 Z m 0.7132444,-1.764964 v -0.254701 l 0.063754,-0.07567 0.063754,-0.07567 h 1.9695797 1.9695797 l 0.059229,0.06047 0.059229,0.06047 0.010619,0.269902 0.010619,0.269902 H 4.8409492 2.7377682 Z M 3.8208431,9.3794892 C 2.8062514,7.9450046 2.7347539,7.8336359 2.6730738,7.5916545 L 2.6321024,7.4309168 2.6324159,7.2545423 2.6327295,7.0781679 2.6690316,6.9389723 C 2.7083207,6.7883241 2.8146562,6.5420085 2.8749009,6.4620966 l 0.037486,-0.049723 0.072461,0.1117856 0.072461,0.1117857 -0.072732,0.1806579 -0.072732,0.180658 -3.445e-4,0.2562052 -3.445e-4,0.2562053 0.05872,0.1483293 0.05872,0.1483294 0.9498033,1.343931 0.9498032,1.343931 -0.068484,0.105652 c -0.037667,0.05811 -0.07582,0.105625 -0.084786,0.105593 -0.00897,-3.2e-5 -0.4383049,-0.596708 -0.9540863,-1.325948 z M 12.855272,5.8255313 C 12.701223,5.7946968 12.581696,5.7221496 12.44096,5.5740629 12.288061,5.4131775 12.036362,5.0957323 12.036362,5.063779 c 0,-0.011763 0.245547,-0.2300323 0.545659,-0.4850435 l 0.545658,-0.4636567 0.08943,0.1061268 c 0.246623,0.292682 0.409579,0.5116889 0.446966,0.6007036 l 0.04147,0.098741 0.0021,0.1618139 0.0021,0.1618138 -0.05356,0.1227306 c -0.02946,0.067502 -0.09175,0.1671376 -0.138432,0.221413 l -0.08487,0.098682 -0.13688,0.065967 c -0.155225,0.074808 -0.305493,0.099518 -0.440669,0.072461 z m 0.274769,-0.416591 c 0.04849,-0.020683 0.107542,-0.065859 0.131234,-0.1003922 l 0.04308,-0.062788 V 5.118991 4.9922214 l -0.08128,-0.082981 -0.08128,-0.082981 h -0.127256 -0.127257 l -0.08204,0.078243 -0.08204,0.078243 v 0.13544 0.1354399 l 0.06694,0.081221 0.06694,0.081221 0.05854,0.011567 c 0.106074,0.020961 0.125426,0.019274 0.21443,-0.018692 z M 4.9524373,5.7308239 4.92284,5.6645062 4.965276,5.5983862 5.007712,5.5322662 5.094501,5.5038782 C 5.1422357,5.4882638 6.2536013,5.1659698 7.564203,4.7876683 l 2.3829122,-0.6878208 0.092783,0.039578 c 0.144757,0.061748 0.187858,0.053681 1.080502,-0.2022491 l 0.840732,-0.241046 0.08375,-0.049938 c 0.04607,-0.027466 0.110541,-0.090519 0.143281,-0.1401175 l 0.05953,-0.090179 V 3.2916957 3.1674949 l -0.05283,-0.1886111 c -0.02906,-0.1037362 -0.05283,-0.1986607 -0.05283,-0.2109433 0,-0.012283 0.126729,0.1333112 0.281619,0.3235418 0.154891,0.1902307 0.298398,0.3660028 0.318907,0.3906045 l 0.03729,0.044731 -0.624591,0.5299626 c -0.343526,0.2914794 -0.634281,0.5262075 -0.646124,0.521618 -0.01184,-0.00459 -0.113967,-0.121725 -0.226943,-0.260301 L 11.07678,4.066141 11.0053,4.080736 C 10.96598,4.088766 9.6084297,4.4782379 7.9885174,4.946236 4.7111777,5.8930705 4.9924119,5.8203935 4.9524373,5.7308239 Z M 4.7859216,4.4689196 C 4.6869743,4.1092209 4.6007787,3.7954197 4.5943759,3.7715835 L 4.5827349,3.7282455 4.746663,3.6860885 c 0.09016,-0.023186 0.1796319,-0.036005 0.1988255,-0.028486 l 0.034898,0.013672 0.052284,0.1662156 c 0.110481,0.351227 0.2939113,1.0501242 0.2939113,1.1198465 v 0.051162 L 5.253936,5.036424 C 5.1496185,5.076526 5.0047093,5.122917 4.9837629,5.122917 c -0.00987,0 -0.098894,-0.2942989 -0.1978413,-0.6539974 z M 9.423468,3.7638568 C 9.4066653,3.7431874 9.3406046,3.5399088 9.2766662,3.3121265 9.0938861,2.6609667 9.0549842,2.5015424 9.0694683,2.4630079 l 0.013502,-0.035922 0.1423442,-0.045808 c 0.078289,-0.025195 0.1464789,-0.040605 0.1515324,-0.034244 0.00845,0.010631 0.3619306,1.3038232 0.3706532,1.3560059 0.00362,0.02166 -0.1994079,0.097105 -0.263696,0.097989 -0.016382,2.251e-4 -0.043534,-0.016502 -0.060336,-0.037171 z"
           id="path1" /></g></g></g></svg>
